<svg width="261" height="97" viewBox="0 0 261 97" fill="none" xmlns="http://www.w3.org/2000/svg">
<g filter="url(#filter0_d_521_2848)">
<path d="M29.1787 19.126C29.1787 15.8123 31.865 13.126 35.1787 13.126H193.486C196.8 13.126 199.486 15.8123 199.486 19.126V64.2562C199.486 67.5699 196.8 70.2562 193.486 70.2562H35.1787C31.865 70.2562 29.1787 67.5699 29.1787 64.2562V19.126Z" fill="white"/>
<path d="M63.2812 36L65.2383 30.3633H66.2422V31.4883H65.8984L64.5195 36H63.2812ZM64.3281 34.6328L64.6172 33.75H67.2227L67.5117 34.6328H64.3281ZM67.3438 36L65.9688 31.4883V30.3633H66.625L68.5859 36H67.3438ZM69.4336 37.5156C69.3685 37.5156 69.3008 37.5143 69.2305 37.5117C69.1602 37.5091 69.0911 37.5065 69.0234 37.5039V36.6445C69.0625 36.6497 69.1081 36.6523 69.1602 36.6523C69.2148 36.6549 69.2682 36.6562 69.3203 36.6562C69.5234 36.6562 69.6849 36.6159 69.8047 36.5352C69.9245 36.4544 70.0039 36.3307 70.043 36.1641L70.082 36L68.5703 31.6992H69.8242L70.8516 35.4102L70.5898 34.957H70.9297L70.6797 35.4102L71.707 31.6992H72.9102L71.4453 35.9961C71.3203 36.3737 71.168 36.6732 70.9883 36.8945C70.8112 37.1185 70.5964 37.2773 70.3438 37.3711C70.0911 37.4674 69.7878 37.5156 69.4336 37.5156ZM74.7344 36.0664C74.4635 36.0664 74.2214 36.0143 74.0078 35.9102C73.7969 35.8034 73.6315 35.6536 73.5117 35.4609C73.3919 35.2656 73.332 35.0378 73.332 34.7773V34.7695C73.332 34.5117 73.3958 34.2904 73.5234 34.1055C73.6536 33.9206 73.8424 33.776 74.0898 33.6719C74.3398 33.5651 74.6432 33.5013 75 33.4805L76.6016 33.3828V34.0781L75.1719 34.1719C74.9271 34.1849 74.7448 34.237 74.625 34.3281C74.5052 34.4193 74.4453 34.543 74.4453 34.6992V34.707C74.4453 34.8711 74.5078 35 74.6328 35.0938C74.7578 35.1875 74.9193 35.2344 75.1172 35.2344C75.2943 35.2344 75.4518 35.1992 75.5898 35.1289C75.7279 35.0586 75.8372 34.9635 75.918 34.8438C75.9987 34.7214 76.0391 34.5846 76.0391 34.4336V33.0625C76.0391 32.875 75.9766 32.7318 75.8516 32.6328C75.7292 32.5312 75.5508 32.4805 75.3164 32.4805C75.1107 32.4805 74.9427 32.5156 74.8125 32.5859C74.6849 32.6536 74.599 32.7513 74.5547 32.8789L74.5469 32.8945H73.4922L73.4961 32.8594C73.5273 32.6068 73.6224 32.3867 73.7812 32.1992C73.9427 32.0117 74.1589 31.8659 74.4297 31.7617C74.7031 31.6576 75.0195 31.6055 75.3789 31.6055C75.7591 31.6055 76.082 31.6641 76.3477 31.7812C76.6133 31.8958 76.8151 32.0625 76.9531 32.2812C77.0938 32.4974 77.1641 32.7578 77.1641 33.0625V36H76.0391V35.4297H75.9688C75.8958 35.5625 75.7982 35.6771 75.6758 35.7734C75.556 35.8672 75.4154 35.9401 75.2539 35.9922C75.0951 36.0417 74.9219 36.0664 74.7344 36.0664ZM78.2812 36V31.6992H79.4219V32.3711H79.4922C79.5833 32.1289 79.7344 31.9414 79.9453 31.8086C80.1562 31.6732 80.4023 31.6055 80.6836 31.6055C80.8789 31.6055 81.056 31.638 81.2148 31.7031C81.3737 31.7656 81.5091 31.8555 81.6211 31.9727C81.7331 32.0898 81.819 32.2318 81.8789 32.3984H81.9492C82.0143 32.2396 82.1107 32.1016 82.2383 31.9844C82.3659 31.8646 82.5156 31.7721 82.6875 31.707C82.8594 31.6393 83.0456 31.6055 83.2461 31.6055C83.5326 31.6055 83.7786 31.6641 83.9844 31.7812C84.1927 31.8984 84.3529 32.0651 84.4648 32.2812C84.5794 32.4948 84.6367 32.75 84.6367 33.0469V36H83.4961V33.332C83.4961 33.1576 83.4701 33.013 83.418 32.8984C83.3659 32.7839 83.2865 32.6979 83.1797 32.6406C83.0755 32.5807 82.944 32.5508 82.7852 32.5508C82.6315 32.5508 82.4974 32.5859 82.3828 32.6562C82.2708 32.7266 82.1836 32.8216 82.1211 32.9414C82.0586 33.0612 82.0273 33.1992 82.0273 33.3555V36H80.8867V33.2812C80.8867 33.1276 80.8581 32.9961 80.8008 32.8867C80.7461 32.7773 80.6654 32.694 80.5586 32.6367C80.4544 32.5794 80.3281 32.5508 80.1797 32.5508C80.0312 32.5508 79.8997 32.5885 79.7852 32.6641C79.6732 32.737 79.5846 32.8385 79.5195 32.9688C79.4544 33.0964 79.4219 33.2422 79.4219 33.4062V36H78.2812ZM88.5078 34.2227V33.3008H89.9531C90.2917 33.3008 90.5547 33.2148 90.7422 33.043C90.9323 32.8685 91.0273 32.6211 91.0273 32.3008V32.293C91.0273 31.9727 90.9323 31.7266 90.7422 31.5547C90.5547 31.3828 90.2917 31.2969 89.9531 31.2969H88.5078V30.3633H90.2422C90.638 30.3633 90.9844 30.444 91.2812 30.6055C91.5781 30.7643 91.8086 30.9883 91.9727 31.2773C92.1393 31.5664 92.2227 31.9036 92.2227 32.2891V32.2969C92.2227 32.6849 92.1393 33.0234 91.9727 33.3125C91.8086 33.6016 91.5781 33.8255 91.2812 33.9844C90.9844 34.1432 90.638 34.2227 90.2422 34.2227H88.5078ZM87.918 36V30.3633H89.0977V36H87.918ZM94.9883 36.0898C94.5482 36.0898 94.1693 36.0013 93.8516 35.8242C93.5339 35.6445 93.2904 35.388 93.1211 35.0547C92.9518 34.7188 92.8672 34.3177 92.8672 33.8516V33.8438C92.8672 33.3802 92.9531 32.9818 93.125 32.6484C93.2969 32.3151 93.5404 32.0586 93.8555 31.8789C94.1732 31.6966 94.5508 31.6055 94.9883 31.6055C95.4258 31.6055 95.8021 31.6953 96.1172 31.875C96.4349 32.0547 96.6797 32.3125 96.8516 32.6484C97.0234 32.9818 97.1094 33.3802 97.1094 33.8438V33.8516C97.1094 34.3177 97.0247 34.7188 96.8555 35.0547C96.6862 35.388 96.4427 35.6445 96.125 35.8242C95.8099 36.0013 95.431 36.0898 94.9883 36.0898ZM94.9883 35.1953C95.1914 35.1953 95.3633 35.1419 95.5039 35.0352C95.6445 34.9284 95.7526 34.7747 95.8281 34.5742C95.9036 34.3737 95.9414 34.1328 95.9414 33.8516V33.8438C95.9414 33.5625 95.9036 33.3229 95.8281 33.125C95.7526 32.9245 95.6432 32.7708 95.5 32.6641C95.3594 32.5547 95.1888 32.5 94.9883 32.5C94.7878 32.5 94.6159 32.5547 94.4727 32.6641C94.332 32.7708 94.224 32.9245 94.1484 33.125C94.0729 33.3229 94.0352 33.5625 94.0352 33.8438V33.8516C94.0352 34.1354 94.0716 34.3776 94.1445 34.5781C94.2201 34.7786 94.3281 34.9323 94.4688 35.0391C94.612 35.1432 94.7852 35.1953 94.9883 35.1953ZM99.8242 36.0156C99.3034 36.0156 98.9284 35.9245 98.6992 35.7422C98.4701 35.5573 98.3555 35.2565 98.3555 34.8398V32.5586H97.6914V31.6992H98.3555V30.6719H99.5078V31.6992H100.395V32.5586H99.5078V34.5781C99.5078 34.7708 99.5508 34.9128 99.6367 35.0039C99.7253 35.0924 99.8659 35.1367 100.059 35.1367C100.132 35.1367 100.191 35.1354 100.238 35.1328C100.288 35.1276 100.34 35.1224 100.395 35.1172V35.9648C100.324 35.9779 100.24 35.9896 100.141 36C100.042 36.0104 99.9362 36.0156 99.8242 36.0156ZM103.223 36.0898C102.783 36.0898 102.404 36.0013 102.086 35.8242C101.768 35.6445 101.525 35.388 101.355 35.0547C101.186 34.7188 101.102 34.3177 101.102 33.8516V33.8438C101.102 33.3802 101.188 32.9818 101.359 32.6484C101.531 32.3151 101.775 32.0586 102.09 31.8789C102.408 31.6966 102.785 31.6055 103.223 31.6055C103.66 31.6055 104.036 31.6953 104.352 31.875C104.669 32.0547 104.914 32.3125 105.086 32.6484C105.258 32.9818 105.344 33.3802 105.344 33.8438V33.8516C105.344 34.3177 105.259 34.7188 105.09 35.0547C104.921 35.388 104.677 35.6445 104.359 35.8242C104.044 36.0013 103.665 36.0898 103.223 36.0898ZM103.223 35.1953C103.426 35.1953 103.598 35.1419 103.738 35.0352C103.879 34.9284 103.987 34.7747 104.062 34.5742C104.138 34.3737 104.176 34.1328 104.176 33.8516V33.8438C104.176 33.5625 104.138 33.3229 104.062 33.125C103.987 32.9245 103.878 32.7708 103.734 32.6641C103.594 32.5547 103.423 32.5 103.223 32.5C103.022 32.5 102.85 32.5547 102.707 32.6641C102.566 32.7708 102.458 32.9245 102.383 33.125C102.307 33.3229 102.27 33.5625 102.27 33.8438V33.8516C102.27 34.1354 102.306 34.3776 102.379 34.5781C102.454 34.7786 102.562 34.9323 102.703 35.0391C102.846 35.1432 103.02 35.1953 103.223 35.1953ZM106.273 36V31.6992H107.414V32.3633H107.484C107.583 32.1289 107.737 31.944 107.945 31.8086C108.154 31.6732 108.411 31.6055 108.719 31.6055C109.198 31.6055 109.562 31.7461 109.812 32.0273C110.065 32.306 110.191 32.7031 110.191 33.2188V36H109.051V33.4766C109.051 33.1719 108.987 32.9414 108.859 32.7852C108.732 32.6289 108.533 32.5508 108.262 32.5508C108.087 32.5508 107.936 32.5911 107.809 32.6719C107.684 32.75 107.586 32.8607 107.516 33.0039C107.448 33.1471 107.414 33.3164 107.414 33.5117V36H106.273ZM113.195 37.5117C112.797 37.5117 112.456 37.4596 112.172 37.3555C111.891 37.2539 111.669 37.1094 111.508 36.9219C111.346 36.737 111.25 36.5234 111.219 36.2812V36.2617H112.348L112.352 36.2773C112.383 36.4023 112.471 36.5039 112.617 36.582C112.766 36.6602 112.966 36.6992 113.219 36.6992C113.523 36.6992 113.76 36.6302 113.93 36.4922C114.099 36.3568 114.184 36.1641 114.184 35.9141V35.1133H114.113C114.035 35.2643 113.932 35.3919 113.805 35.4961C113.68 35.6003 113.534 35.6797 113.367 35.7344C113.203 35.7865 113.022 35.8125 112.824 35.8125C112.465 35.8125 112.154 35.7266 111.891 35.5547C111.63 35.3802 111.428 35.138 111.285 34.8281C111.145 34.5182 111.074 34.1602 111.074 33.7539V33.7461C111.074 33.3242 111.145 32.9544 111.285 32.6367C111.428 32.319 111.632 32.0716 111.895 31.8945C112.16 31.7174 112.477 31.6289 112.844 31.6289C113.042 31.6289 113.223 31.6602 113.387 31.7227C113.553 31.7852 113.699 31.8737 113.824 31.9883C113.949 32.1029 114.049 32.2409 114.125 32.4023H114.18V31.6992H115.32V35.8672C115.32 36.2031 115.233 36.4935 115.059 36.7383C114.887 36.9857 114.642 37.1758 114.324 37.3086C114.007 37.444 113.63 37.5117 113.195 37.5117ZM113.211 34.9375C113.417 34.9375 113.592 34.888 113.738 34.7891C113.884 34.6875 113.996 34.5482 114.074 34.3711C114.155 34.194 114.195 33.987 114.195 33.75V33.7422C114.195 33.5078 114.155 33.3008 114.074 33.1211C113.996 32.9414 113.884 32.8021 113.738 32.7031C113.592 32.6042 113.417 32.5547 113.211 32.5547C113.005 32.5547 112.831 32.6042 112.688 32.7031C112.544 32.8021 112.434 32.9414 112.355 33.1211C112.28 33.2982 112.242 33.5052 112.242 33.7422V33.75C112.242 33.9844 112.28 34.1914 112.355 34.3711C112.434 34.5482 112.544 34.6875 112.688 34.7891C112.831 34.888 113.005 34.9375 113.211 34.9375Z" fill="black"/>
<path d="M64.4004 50.375L64.3613 49.3594H64.541L67.0098 46.6211H67.8926L65.5605 49.1406L65.2324 49.457L64.4004 50.375ZM63.7754 52.2578V46.6211H64.4785V52.2578H63.7754ZM67.1895 52.2578L65.084 49.4492L65.5684 48.9609L68.0996 52.2578H67.1895ZM70.0996 52.332C69.7819 52.332 69.515 52.2721 69.2988 52.1523C69.0827 52.0299 68.9199 51.8529 68.8105 51.6211C68.7038 51.3867 68.6504 51.1042 68.6504 50.7734V48.0469H69.3301V50.6094C69.3301 50.987 69.403 51.2682 69.5488 51.4531C69.6973 51.638 69.9395 51.7305 70.2754 51.7305C70.4603 51.7305 70.623 51.7031 70.7637 51.6484C70.9069 51.5938 71.0267 51.5156 71.123 51.4141C71.2194 51.3099 71.291 51.1849 71.3379 51.0391C71.3874 50.8906 71.4121 50.724 71.4121 50.5391V48.0469H72.0918V52.2578H71.4121V51.6289H71.3496C71.2819 51.7773 71.1895 51.9049 71.0723 52.0117C70.9551 52.1159 70.8145 52.1953 70.6504 52.25C70.4889 52.3047 70.3053 52.332 70.0996 52.332ZM73.4004 52.2578V46.375H74.0801V52.2578H73.4004ZM75.4238 52.2578V46.375H76.1035V52.2578H75.4238ZM78.0762 52.2578L76.4316 50.1953L76.9316 49.7617L78.9316 52.2578H78.0762ZM76.0176 50.7422L75.9863 49.8867H76.166L77.9863 48.0469H78.8105L76.8105 49.9766L76.6465 50.1367L76.0176 50.7422ZM80.7676 52.332C80.502 52.332 80.2624 52.2812 80.0488 52.1797C79.8379 52.0781 79.6699 51.9336 79.5449 51.7461C79.4225 51.5586 79.3613 51.3372 79.3613 51.082V51.0742C79.3613 50.8242 79.4212 50.6107 79.541 50.4336C79.6608 50.2539 79.8353 50.1133 80.0645 50.0117C80.2936 49.9102 80.571 49.8503 80.8965 49.832L82.4434 49.7383V50.2812L80.9785 50.375C80.6582 50.3932 80.4238 50.4596 80.2754 50.5742C80.1296 50.6888 80.0566 50.8503 80.0566 51.0586V51.0664C80.0566 51.2799 80.1374 51.4466 80.2988 51.5664C80.4603 51.6836 80.6634 51.7422 80.9082 51.7422C81.14 51.7422 81.3457 51.6966 81.5254 51.6055C81.7051 51.5117 81.8457 51.3854 81.9473 51.2266C82.0514 51.0677 82.1035 50.888 82.1035 50.6875V49.375C82.1035 49.1146 82.0241 48.9167 81.8652 48.7812C81.709 48.6432 81.4733 48.5742 81.1582 48.5742C80.9056 48.5742 80.6986 48.6198 80.5371 48.7109C80.3757 48.7995 80.2676 48.9258 80.2129 49.0898L80.209 49.1016H79.5293L79.5332 49.0781C79.5697 48.8568 79.6608 48.6641 79.8066 48.5C79.9551 48.3333 80.1465 48.2044 80.3809 48.1133C80.6152 48.0195 80.8822 47.9727 81.1816 47.9727C81.5254 47.9727 81.8158 48.0286 82.0527 48.1406C82.2923 48.2526 82.4733 48.4141 82.5957 48.625C82.7207 48.8333 82.7832 49.0833 82.7832 49.375V52.2578H82.1035V51.6367H82.041C81.9525 51.7852 81.8444 51.9115 81.7168 52.0156C81.5918 52.1198 81.4499 52.1992 81.291 52.2539C81.1322 52.306 80.9577 52.332 80.7676 52.332ZM85.4707 52.332C85.1582 52.332 84.8822 52.2852 84.6426 52.1914C84.403 52.0951 84.2103 51.9609 84.0645 51.7891C83.9212 51.6172 83.8366 51.4154 83.8105 51.1836H84.5059C84.5632 51.3581 84.6751 51.4987 84.8418 51.6055C85.0085 51.7122 85.2259 51.7656 85.4941 51.7656C85.6842 51.7656 85.8509 51.7383 85.9941 51.6836C86.14 51.6263 86.2546 51.5495 86.3379 51.4531C86.4212 51.3542 86.4629 51.2409 86.4629 51.1133V51.1055C86.4629 50.9622 86.4056 50.8411 86.291 50.7422C86.1764 50.6406 85.9889 50.5586 85.7285 50.4961L85.0762 50.3398C84.8132 50.2773 84.597 50.1966 84.4277 50.0977C84.2585 49.9961 84.1335 49.8724 84.0527 49.7266C83.972 49.5781 83.9316 49.4036 83.9316 49.2031V49.1992C83.9316 48.9648 83.9993 48.7552 84.1348 48.5703C84.2728 48.3854 84.4603 48.2396 84.6973 48.1328C84.9342 48.026 85.2012 47.9727 85.498 47.9727C85.7923 47.9727 86.0527 48.0195 86.2793 48.1133C86.5085 48.2044 86.6921 48.3346 86.8301 48.5039C86.9707 48.6732 87.0566 48.8724 87.0879 49.1016H86.4199C86.3757 48.9349 86.2741 48.7995 86.1152 48.6953C85.9564 48.5911 85.7493 48.5391 85.4941 48.5391C85.3275 48.5391 85.179 48.5664 85.0488 48.6211C84.9186 48.6732 84.8158 48.7461 84.7402 48.8398C84.6647 48.9336 84.627 49.043 84.627 49.168V49.1758C84.627 49.2695 84.6517 49.3529 84.7012 49.4258C84.7507 49.4987 84.8275 49.5625 84.9316 49.6172C85.0358 49.6719 85.1699 49.7201 85.334 49.7617L85.9824 49.918C86.3783 50.0143 86.6725 50.1523 86.8652 50.332C87.0605 50.5117 87.1582 50.7526 87.1582 51.0547V51.0625C87.1582 51.3125 87.084 51.5339 86.9355 51.7266C86.7871 51.9167 86.5853 52.0651 86.3301 52.1719C86.0775 52.2786 85.791 52.332 85.4707 52.332Z" fill="black"/>
<rect x="17.2754" y="28.6914" width="31.6009" height="28.3845" rx="6" fill="#006E6D"/>
<path d="M32.0293 53.4043C31.209 53.4043 30.5417 53.1113 30.0273 52.5254L25.0078 46.7637C24.7539 46.4772 24.5781 46.207 24.4805 45.9531C24.3893 45.6992 24.3438 45.4258 24.3438 45.1328C24.3438 44.4818 24.5618 43.9414 24.998 43.5117C25.4408 43.0755 25.9974 42.8574 26.668 42.8574C27.3776 42.8574 27.9635 43.1211 28.4258 43.6484L31.9902 47.75L39.1875 36.5098C39.4674 36.0801 39.7637 35.7773 40.0762 35.6016C40.3887 35.4193 40.7695 35.3281 41.2188 35.3281C41.8828 35.3281 42.4395 35.5462 42.8887 35.9824C43.3444 36.4121 43.5723 36.9492 43.5723 37.5938C43.5723 37.8216 43.5332 38.0625 43.4551 38.3164C43.377 38.5638 43.2533 38.8112 43.084 39.0586L34.1289 52.3594C33.6602 53.056 32.9603 53.4043 32.0293 53.4043Z" fill="white"/>
<path d="M112.604 51.5742C111.784 51.5742 111.117 51.2812 110.603 50.6953L105.583 44.9336C105.329 44.6471 105.153 44.377 105.056 44.123C104.965 43.8691 104.919 43.5957 104.919 43.3027C104.919 42.6517 105.137 42.1113 105.573 41.6816C106.016 41.2454 106.573 41.0273 107.243 41.0273C107.953 41.0273 108.539 41.291 109.001 41.8184L112.565 45.9199L119.763 34.6797C120.043 34.25 120.339 33.9473 120.651 33.7715C120.964 33.5892 121.345 33.498 121.794 33.498C122.458 33.498 123.015 33.7161 123.464 34.1523C123.92 34.582 124.147 35.1191 124.147 35.7637C124.147 35.9915 124.108 36.2324 124.03 36.4863C123.952 36.7337 123.828 36.9811 123.659 37.2285L114.704 50.5293C114.235 51.2259 113.535 51.5742 112.604 51.5742Z" fill="white"/>
<rect x="106.091" y="49.751" width="138.26" height="26" rx="6" fill="#B81F00"/>
<path d="M113.797 66.751V58.2959H116.698C117.534 58.2959 118.249 58.4639 118.842 58.7998C119.44 59.1318 119.897 59.6123 120.213 60.2412C120.53 60.8701 120.688 61.6279 120.688 62.5146V62.5264C120.688 63.4131 120.53 64.1729 120.213 64.8057C119.897 65.4346 119.442 65.917 118.848 66.2529C118.254 66.585 117.538 66.751 116.698 66.751H113.797ZM114.852 65.8018H116.627C117.256 65.8018 117.793 65.6729 118.239 65.415C118.684 65.1572 119.024 64.7842 119.258 64.2959C119.493 63.8076 119.61 63.2217 119.61 62.5381V62.5264C119.61 61.8389 119.491 61.251 119.252 60.7627C119.018 60.2705 118.678 59.8955 118.233 59.6377C117.788 59.376 117.252 59.2451 116.627 59.2451H114.852V65.8018ZM122.411 66.751V60.4346H123.43V66.751H122.411ZM122.926 59.2158C122.735 59.2158 122.569 59.1475 122.428 59.0107C122.292 58.8701 122.223 58.7041 122.223 58.5127C122.223 58.3174 122.292 58.1514 122.428 58.0146C122.569 57.8779 122.735 57.8096 122.926 57.8096C123.122 57.8096 123.288 57.8779 123.424 58.0146C123.561 58.1514 123.629 58.3174 123.629 58.5127C123.629 58.7041 123.561 58.8701 123.424 59.0107C123.288 59.1475 123.122 59.2158 122.926 59.2158ZM127.52 66.8623C127.051 66.8623 126.637 66.792 126.278 66.6514C125.918 66.5068 125.629 66.3057 125.411 66.0479C125.196 65.79 125.069 65.4873 125.03 65.1396H126.073C126.159 65.4014 126.327 65.6123 126.577 65.7725C126.827 65.9326 127.153 66.0127 127.555 66.0127C127.84 66.0127 128.09 65.9717 128.305 65.8896C128.524 65.8037 128.696 65.6885 128.821 65.5439C128.946 65.3955 129.008 65.2256 129.008 65.0342V65.0225C129.008 64.8076 128.922 64.626 128.75 64.4775C128.579 64.3252 128.297 64.2021 127.907 64.1084L126.928 63.874C126.534 63.7803 126.209 63.6592 125.956 63.5107C125.702 63.3584 125.514 63.1729 125.393 62.9541C125.272 62.7314 125.211 62.4697 125.211 62.1689V62.1631C125.211 61.8115 125.313 61.4971 125.516 61.2197C125.723 60.9424 126.004 60.7236 126.36 60.5635C126.715 60.4033 127.116 60.3232 127.561 60.3232C128.002 60.3232 128.393 60.3936 128.733 60.5342C129.077 60.6709 129.352 60.8662 129.559 61.1201C129.77 61.374 129.899 61.6729 129.946 62.0166H128.944C128.877 61.7666 128.725 61.5635 128.487 61.4072C128.249 61.251 127.938 61.1729 127.555 61.1729C127.305 61.1729 127.083 61.2139 126.887 61.2959C126.692 61.374 126.538 61.4834 126.424 61.624C126.311 61.7646 126.254 61.9287 126.254 62.1162V62.1279C126.254 62.2686 126.292 62.3936 126.366 62.5029C126.44 62.6123 126.555 62.708 126.711 62.79C126.868 62.8721 127.069 62.9443 127.315 63.0068L128.288 63.2412C128.881 63.3857 129.323 63.5928 129.612 63.8623C129.905 64.1318 130.051 64.4932 130.051 64.9463V64.958C130.051 65.333 129.94 65.665 129.717 65.9541C129.495 66.2393 129.192 66.4619 128.809 66.6221C128.43 66.7822 128 66.8623 127.52 66.8623ZM131.657 66.751V60.4346H132.676V66.751H131.657ZM132.172 59.2158C131.981 59.2158 131.815 59.1475 131.674 59.0107C131.538 58.8701 131.469 58.7041 131.469 58.5127C131.469 58.3174 131.538 58.1514 131.674 58.0146C131.815 57.8779 131.981 57.8096 132.172 57.8096C132.368 57.8096 132.534 57.8779 132.67 58.0146C132.807 58.1514 132.875 58.3174 132.875 58.5127C132.875 58.7041 132.807 58.8701 132.67 59.0107C132.534 59.1475 132.368 59.2158 132.172 59.2158ZM134.598 66.751V60.4346H135.618V61.3955H135.711C135.852 61.0557 136.067 60.792 136.356 60.6045C136.649 60.417 137.002 60.3232 137.417 60.3232C137.702 60.3232 137.958 60.3701 138.184 60.4639C138.411 60.5576 138.606 60.6885 138.77 60.8564C138.934 61.0205 139.065 61.2119 139.163 61.4307H139.256C139.37 61.208 139.522 61.0146 139.713 60.8506C139.905 60.6826 140.125 60.5537 140.375 60.4639C140.629 60.3701 140.901 60.3232 141.19 60.3232C141.62 60.3232 141.983 60.4033 142.28 60.5635C142.581 60.7236 142.809 60.958 142.965 61.2666C143.122 61.5713 143.2 61.9443 143.2 62.3857V66.751H142.18V62.6201C142.18 62.3076 142.131 62.0498 142.034 61.8467C141.94 61.6396 141.795 61.4854 141.6 61.3838C141.405 61.2783 141.159 61.2256 140.862 61.2256C140.569 61.2256 140.313 61.292 140.094 61.4248C139.875 61.5576 139.706 61.7354 139.584 61.958C139.463 62.1768 139.403 62.4209 139.403 62.6904V66.751H138.383V62.4619C138.383 62.2119 138.329 61.9951 138.219 61.8115C138.114 61.624 137.961 61.4795 137.762 61.3779C137.567 61.2764 137.336 61.2256 137.071 61.2256C136.797 61.2256 136.549 61.2979 136.327 61.4424C136.108 61.5869 135.934 61.7822 135.805 62.0283C135.68 62.2705 135.618 62.54 135.618 62.8369V66.751H134.598ZM145.04 68.8604V60.4346H146.059V61.4424H146.153C146.282 61.208 146.444 61.0088 146.639 60.8447C146.834 60.6768 147.057 60.5479 147.307 60.458C147.557 60.3682 147.829 60.3232 148.122 60.3232C148.657 60.3232 149.122 60.46 149.516 60.7334C149.915 61.0029 150.223 61.3818 150.442 61.8701C150.661 62.3584 150.77 62.9307 150.77 63.5869V63.5986C150.77 64.2588 150.661 64.833 150.442 65.3213C150.223 65.8096 149.915 66.1885 149.516 66.458C149.122 66.7275 148.657 66.8623 148.122 66.8623C147.833 66.8623 147.559 66.8174 147.301 66.7275C147.047 66.6338 146.821 66.5049 146.622 66.3408C146.426 66.1768 146.27 65.9814 146.153 65.7549H146.059V68.8604H145.04ZM147.887 65.96C148.274 65.96 148.604 65.8662 148.877 65.6787C149.151 65.4873 149.36 65.2158 149.504 64.8643C149.653 64.5088 149.727 64.0869 149.727 63.5986V63.5869C149.727 63.0947 149.653 62.6729 149.504 62.3213C149.36 61.9697 149.151 61.7002 148.877 61.5127C148.604 61.3213 148.274 61.2256 147.887 61.2256C147.504 61.2256 147.174 61.3213 146.897 61.5127C146.62 61.7041 146.407 61.9756 146.258 62.3271C146.11 62.6787 146.036 63.0986 146.036 63.5869V63.5986C146.036 64.083 146.11 64.5029 146.258 64.8584C146.407 65.21 146.62 65.4814 146.897 65.6729C147.174 65.8643 147.504 65.96 147.887 65.96ZM154.098 66.8623C153.7 66.8623 153.34 66.7861 153.02 66.6338C152.704 66.4814 152.452 66.2646 152.264 65.9834C152.081 65.7021 151.989 65.3701 151.989 64.9873V64.9756C151.989 64.6006 152.079 64.2803 152.258 64.0146C152.438 63.7451 152.7 63.5342 153.043 63.3818C153.387 63.2295 153.803 63.1396 154.292 63.1123L156.612 62.9717V63.7861L154.415 63.9268C153.934 63.9541 153.583 64.0537 153.36 64.2256C153.141 64.3975 153.032 64.6396 153.032 64.9521V64.9639C153.032 65.2842 153.153 65.5342 153.395 65.7139C153.637 65.8896 153.942 65.9775 154.309 65.9775C154.657 65.9775 154.965 65.9092 155.235 65.7725C155.504 65.6318 155.715 65.4424 155.868 65.2041C156.024 64.9658 156.102 64.6963 156.102 64.3955V62.4268C156.102 62.0361 155.983 61.7393 155.745 61.5361C155.51 61.3291 155.157 61.2256 154.684 61.2256C154.305 61.2256 153.995 61.2939 153.752 61.4307C153.51 61.5635 153.348 61.7529 153.266 61.999L153.26 62.0166H152.241L152.247 61.9814C152.301 61.6494 152.438 61.3604 152.657 61.1143C152.879 60.8643 153.167 60.6709 153.518 60.5342C153.87 60.3936 154.27 60.3232 154.719 60.3232C155.235 60.3232 155.67 60.4072 156.026 60.5752C156.385 60.7432 156.657 60.9854 156.84 61.3018C157.028 61.6143 157.122 61.9893 157.122 62.4268V66.751H156.102V65.8193H156.008C155.875 66.042 155.713 66.2314 155.522 66.3877C155.334 66.5439 155.122 66.6631 154.883 66.7451C154.645 66.8232 154.383 66.8623 154.098 66.8623ZM158.985 66.751V60.4346H160.004V61.3838H160.098C160.258 61.0479 160.489 60.7881 160.79 60.6045C161.09 60.417 161.473 60.3232 161.938 60.3232C162.649 60.3232 163.194 60.5264 163.573 60.9326C163.956 61.335 164.147 61.9111 164.147 62.6611V66.751H163.127V62.9072C163.127 62.3369 163.006 61.915 162.764 61.6416C162.526 61.3643 162.155 61.2256 161.651 61.2256C161.315 61.2256 161.024 61.2979 160.778 61.4424C160.532 61.5869 160.34 61.792 160.204 62.0576C160.071 62.3232 160.004 62.6416 160.004 63.0127V66.751H158.985ZM171.7 66.8623C171.168 66.8623 170.704 66.7275 170.305 66.458C169.907 66.1885 169.598 65.8096 169.379 65.3213C169.161 64.8291 169.051 64.2549 169.051 63.5986V63.5869C169.051 62.9268 169.161 62.3525 169.379 61.8643C169.598 61.376 169.905 60.9971 170.299 60.7275C170.698 60.458 171.165 60.3232 171.7 60.3232C171.989 60.3232 172.26 60.3701 172.514 60.4639C172.772 60.5537 173 60.6807 173.2 60.8447C173.399 61.0088 173.555 61.2041 173.668 61.4307H173.762V57.9268H174.782V66.751H173.762V65.7432H173.668C173.54 65.9775 173.377 66.1787 173.182 66.3467C172.987 66.5107 172.764 66.6377 172.514 66.7275C172.264 66.8174 171.993 66.8623 171.7 66.8623ZM171.934 65.96C172.317 65.96 172.647 65.8643 172.924 65.6729C173.202 65.4814 173.415 65.21 173.563 64.8584C173.711 64.5029 173.786 64.083 173.786 63.5986V63.5869C173.786 63.0986 173.711 62.6787 173.563 62.3271C173.415 61.9756 173.202 61.7041 172.924 61.5127C172.647 61.3213 172.317 61.2256 171.934 61.2256C171.551 61.2256 171.221 61.3213 170.944 61.5127C170.67 61.7002 170.459 61.9697 170.311 62.3213C170.167 62.6729 170.094 63.0947 170.094 63.5869V63.5986C170.094 64.0869 170.167 64.5088 170.311 64.8643C170.459 65.2158 170.67 65.4873 170.944 65.6787C171.221 65.8662 171.551 65.96 171.934 65.96ZM178.473 66.8623C178.075 66.8623 177.715 66.7861 177.395 66.6338C177.079 66.4814 176.827 66.2646 176.639 65.9834C176.456 65.7021 176.364 65.3701 176.364 64.9873V64.9756C176.364 64.6006 176.454 64.2803 176.633 64.0146C176.813 63.7451 177.075 63.5342 177.418 63.3818C177.762 63.2295 178.178 63.1396 178.667 63.1123L180.987 62.9717V63.7861L178.79 63.9268C178.309 63.9541 177.958 64.0537 177.735 64.2256C177.516 64.3975 177.407 64.6396 177.407 64.9521V64.9639C177.407 65.2842 177.528 65.5342 177.77 65.7139C178.012 65.8896 178.317 65.9775 178.684 65.9775C179.032 65.9775 179.34 65.9092 179.61 65.7725C179.879 65.6318 180.09 65.4424 180.243 65.2041C180.399 64.9658 180.477 64.6963 180.477 64.3955V62.4268C180.477 62.0361 180.358 61.7393 180.12 61.5361C179.885 61.3291 179.532 61.2256 179.059 61.2256C178.68 61.2256 178.37 61.2939 178.127 61.4307C177.885 61.5635 177.723 61.7529 177.641 61.999L177.635 62.0166H176.616L176.622 61.9814C176.676 61.6494 176.813 61.3604 177.032 61.1143C177.254 60.8643 177.542 60.6709 177.893 60.5342C178.245 60.3936 178.645 60.3232 179.094 60.3232C179.61 60.3232 180.045 60.4072 180.401 60.5752C180.76 60.7432 181.032 60.9854 181.215 61.3018C181.403 61.6143 181.497 61.9893 181.497 62.4268V66.751H180.477V65.8193H180.383C180.25 66.042 180.088 66.2314 179.897 66.3877C179.709 66.5439 179.497 66.6631 179.258 66.7451C179.02 66.8232 178.758 66.8623 178.473 66.8623ZM183.418 66.751V57.9268H184.438V66.751H183.418ZM188.129 66.8623C187.731 66.8623 187.372 66.7861 187.051 66.6338C186.735 66.4814 186.483 66.2646 186.295 65.9834C186.112 65.7021 186.02 65.3701 186.02 64.9873V64.9756C186.02 64.6006 186.11 64.2803 186.29 64.0146C186.469 63.7451 186.731 63.5342 187.075 63.3818C187.418 63.2295 187.834 63.1396 188.323 63.1123L190.643 62.9717V63.7861L188.446 63.9268C187.965 63.9541 187.614 64.0537 187.391 64.2256C187.172 64.3975 187.063 64.6396 187.063 64.9521V64.9639C187.063 65.2842 187.184 65.5342 187.426 65.7139C187.668 65.8896 187.973 65.9775 188.34 65.9775C188.688 65.9775 188.997 65.9092 189.266 65.7725C189.536 65.6318 189.747 65.4424 189.899 65.2041C190.055 64.9658 190.133 64.6963 190.133 64.3955V62.4268C190.133 62.0361 190.014 61.7393 189.776 61.5361C189.542 61.3291 189.188 61.2256 188.715 61.2256C188.336 61.2256 188.026 61.2939 187.784 61.4307C187.542 61.5635 187.379 61.7529 187.297 61.999L187.292 62.0166H186.272L186.278 61.9814C186.333 61.6494 186.469 61.3604 186.688 61.1143C186.911 60.8643 187.198 60.6709 187.549 60.5342C187.901 60.3936 188.301 60.3232 188.75 60.3232C189.266 60.3232 189.702 60.4072 190.057 60.5752C190.417 60.7432 190.688 60.9854 190.872 61.3018C191.059 61.6143 191.153 61.9893 191.153 62.4268V66.751H190.133V65.8193H190.04C189.907 66.042 189.745 66.2314 189.553 66.3877C189.366 66.5439 189.153 66.6631 188.915 66.7451C188.676 66.8232 188.415 66.8623 188.129 66.8623ZM193.016 66.751V60.4346H194.036V61.3955H194.129C194.27 61.0557 194.485 60.792 194.774 60.6045C195.067 60.417 195.42 60.3232 195.834 60.3232C196.12 60.3232 196.375 60.3701 196.602 60.4639C196.829 60.5576 197.024 60.6885 197.188 60.8564C197.352 61.0205 197.483 61.2119 197.581 61.4307H197.674C197.788 61.208 197.94 61.0146 198.131 60.8506C198.323 60.6826 198.543 60.5537 198.793 60.4639C199.047 60.3701 199.319 60.3232 199.608 60.3232C200.038 60.3232 200.401 60.4033 200.698 60.5635C200.999 60.7236 201.227 60.958 201.383 61.2666C201.54 61.5713 201.618 61.9443 201.618 62.3857V66.751H200.598V62.6201C200.598 62.3076 200.549 62.0498 200.452 61.8467C200.358 61.6396 200.213 61.4854 200.018 61.3838C199.823 61.2783 199.577 61.2256 199.28 61.2256C198.987 61.2256 198.731 61.292 198.512 61.4248C198.293 61.5576 198.124 61.7354 198.002 61.958C197.881 62.1768 197.821 62.4209 197.821 62.6904V66.751H196.801V62.4619C196.801 62.2119 196.747 61.9951 196.637 61.8115C196.532 61.624 196.379 61.4795 196.18 61.3779C195.985 61.2764 195.754 61.2256 195.489 61.2256C195.215 61.2256 194.967 61.2979 194.745 61.4424C194.526 61.5869 194.352 61.7822 194.223 62.0283C194.098 62.2705 194.036 62.54 194.036 62.8369V66.751H193.016ZM206.827 66.751V66.0244L209.686 62.9307C210.045 62.54 210.327 62.2178 210.53 61.9639C210.733 61.7061 210.875 61.4736 210.958 61.2666C211.04 61.0596 211.081 60.833 211.081 60.5869V60.5752C211.081 60.2783 211.016 60.0127 210.887 59.7783C210.758 59.5439 210.575 59.3584 210.336 59.2217C210.098 59.085 209.813 59.0166 209.481 59.0166C209.145 59.0166 208.85 59.0869 208.596 59.2275C208.342 59.3643 208.145 59.5576 208.004 59.8076C207.864 60.0537 207.793 60.3428 207.793 60.6748L207.788 60.6865L206.78 60.6807L206.768 60.6748C206.772 60.1748 206.893 59.7314 207.131 59.3447C207.37 58.9541 207.698 58.6494 208.116 58.4307C208.534 58.208 209.012 58.0967 209.551 58.0967C210.043 58.0967 210.487 58.2002 210.881 58.4072C211.276 58.6104 211.586 58.8896 211.813 59.2451C212.043 59.6006 212.159 60.0068 212.159 60.4639V60.4756C212.159 60.7959 212.102 61.1045 211.989 61.4014C211.879 61.6982 211.684 62.0283 211.403 62.3916C211.122 62.751 210.725 63.1943 210.213 63.7217L208.028 65.9775L208.292 65.4912V65.9775L208.034 65.8018H212.299V66.751H206.827ZM217.508 66.751V57.9268H218.528V61.3838H218.622C218.782 61.0479 219.012 60.7881 219.313 60.6045C219.614 60.417 219.997 60.3232 220.461 60.3232C220.934 60.3232 221.334 60.415 221.663 60.5986C221.991 60.7783 222.241 61.042 222.413 61.3896C222.584 61.7373 222.67 62.1611 222.67 62.6611V66.751H221.651V62.9072C221.651 62.3369 221.53 61.915 221.288 61.6416C221.049 61.3643 220.678 61.2256 220.174 61.2256C219.838 61.2256 219.547 61.2979 219.301 61.4424C219.055 61.5869 218.864 61.792 218.727 62.0576C218.594 62.3232 218.528 62.6416 218.528 63.0127V66.751H217.508ZM226.25 66.8623C225.852 66.8623 225.493 66.7861 225.172 66.6338C224.856 66.4814 224.604 66.2646 224.417 65.9834C224.233 65.7021 224.141 65.3701 224.141 64.9873V64.9756C224.141 64.6006 224.231 64.2803 224.411 64.0146C224.59 63.7451 224.852 63.5342 225.196 63.3818C225.54 63.2295 225.956 63.1396 226.444 63.1123L228.764 62.9717V63.7861L226.567 63.9268C226.086 63.9541 225.735 64.0537 225.512 64.2256C225.293 64.3975 225.184 64.6396 225.184 64.9521V64.9639C225.184 65.2842 225.305 65.5342 225.547 65.7139C225.79 65.8896 226.094 65.9775 226.461 65.9775C226.809 65.9775 227.118 65.9092 227.387 65.7725C227.657 65.6318 227.868 65.4424 228.02 65.2041C228.176 64.9658 228.254 64.6963 228.254 64.3955V62.4268C228.254 62.0361 228.135 61.7393 227.897 61.5361C227.663 61.3291 227.309 61.2256 226.836 61.2256C226.458 61.2256 226.147 61.2939 225.905 61.4307C225.663 61.5635 225.5 61.7529 225.418 61.999L225.413 62.0166H224.393L224.399 61.9814C224.454 61.6494 224.59 61.3604 224.809 61.1143C225.032 60.8643 225.319 60.6709 225.67 60.5342C226.022 60.3936 226.422 60.3232 226.872 60.3232C227.387 60.3232 227.823 60.4072 228.178 60.5752C228.538 60.7432 228.809 60.9854 228.993 61.3018C229.18 61.6143 229.274 61.9893 229.274 62.4268V66.751H228.254V65.8193H228.161C228.028 66.042 227.866 66.2314 227.674 66.3877C227.487 66.5439 227.274 66.6631 227.036 66.7451C226.797 66.8232 226.536 66.8623 226.25 66.8623ZM231.137 66.751V60.4346H232.157V61.3721H232.25C232.372 61.04 232.577 60.7822 232.866 60.5986C233.155 60.415 233.512 60.3232 233.938 60.3232C234.036 60.3232 234.131 60.3291 234.225 60.3408C234.323 60.3486 234.397 60.3564 234.448 60.3643V61.3545C234.342 61.335 234.239 61.3213 234.137 61.3135C234.04 61.3018 233.934 61.2959 233.821 61.2959C233.497 61.2959 233.209 61.3604 232.959 61.4893C232.709 61.6182 232.512 61.7979 232.368 62.0283C232.227 62.2588 232.157 62.5283 232.157 62.8369V66.751H231.137ZM235.731 66.751V60.4346H236.75V66.751H235.731ZM236.247 59.2158C236.055 59.2158 235.889 59.1475 235.749 59.0107C235.612 58.8701 235.543 58.7041 235.543 58.5127C235.543 58.3174 235.612 58.1514 235.749 58.0146C235.889 57.8779 236.055 57.8096 236.247 57.8096C236.442 57.8096 236.608 57.8779 236.745 58.0146C236.881 58.1514 236.95 58.3174 236.95 58.5127C236.95 58.7041 236.881 58.8701 236.745 59.0107C236.608 59.1475 236.442 59.2158 236.247 59.2158Z" fill="white"/>
</g>
<defs>
<filter id="filter0_d_521_2848" x="0.67539" y="0.525976" width="260.276" height="95.825" filterUnits="userSpaceOnUse" color-interpolation-filters="sRGB">
<feFlood flood-opacity="0" result="BackgroundImageFix"/>
<feColorMatrix in="SourceAlpha" type="matrix" values="0 0 0 0 0 0 0 0 0 0 0 0 0 0 0 0 0 0 127 0" result="hardAlpha"/>
<feOffset dy="4"/>
<feGaussianBlur stdDeviation="8.3"/>
<feComposite in2="hardAlpha" operator="out"/>
<feColorMatrix type="matrix" values="0 0 0 0 0 0 0 0 0 0 0 0 0 0 0 0 0 0 0.15 0"/>
<feBlend mode="normal" in2="BackgroundImageFix" result="effect1_dropShadow_521_2848"/>
<feBlend mode="normal" in="SourceGraphic" in2="effect1_dropShadow_521_2848" result="shape"/>
</filter>
</defs>
</svg>
